<svg width="22" height="22" viewBox="0 0 22 22" fill="none" xmlns="http://www.w3.org/2000/svg">
<path d="M6.59218 8.59623V10.1704L6.58749 10.1782C6.55307 10.2371 6.52722 10.3093 6.49749 10.3926C6.43361 10.571 6.35365 10.7922 6.15731 10.9842C5.8395 11.2918 5.54981 11.4429 5.21285 11.6178C4.81321 11.8256 4.3592 12.062 3.76174 12.6109L3.69745 12.6703C3.67576 12.6892 3.65232 12.7108 3.62553 12.7358C3.39772 12.9472 2.92388 13.3871 2.00098 13.3871V11.5337C3.10038 11.5337 3.61028 10.9462 3.80968 10.7736C3.83205 10.7523 3.85415 10.732 3.87584 10.7125C4.41786 10.2147 4.83677 9.98209 5.21058 9.78656C5.58437 9.59102 5.91399 9.43245 6.27464 9.08315C6.43629 8.92579 6.5287 8.75074 6.59218 8.59619L6.59218 8.59623Z" fill="#4B5563"/>
<path d="M17.7838 7.0498V16.1475H9.5707C9.69538 16.0331 9.77106 15.875 9.7819 15.7062C9.79275 15.5373 9.73798 15.3707 9.62909 15.2413H10.5099L10.5555 15.2061C10.6969 15.0966 10.7876 14.9342 10.8066 14.7564C10.8256 14.5785 10.7712 14.4005 10.656 14.2637H11.2194L11.2649 14.2285V14.2286C11.4259 14.1042 11.52 13.9123 11.52 13.709C11.52 13.5057 11.4259 13.3137 11.2649 13.1895L11.2194 13.1542H10.656C10.7561 13.0361 10.8107 12.8861 10.8103 12.7313C10.8103 12.72 10.8103 12.7089 10.8095 12.6979V12.6978C10.8008 12.5297 10.728 12.3714 10.6061 12.2555C10.4841 12.1395 10.3223 12.0747 10.1541 12.0744H7.27365C7.3658 11.8095 7.42298 11.5337 7.44361 11.2539C7.44481 11.2375 7.44575 11.2211 7.44669 11.2045C7.44776 11.1817 7.44896 11.1586 7.44937 11.135C7.45754 10.8276 7.41334 10.4433 7.18419 10.2211L7.18137 10.2183C7.14548 10.1836 7.10771 10.1508 7.06807 10.1204C6.97941 10.0535 6.90454 10.0245 6.83035 10.0245V10.0243C6.80651 10.0243 6.78267 10.0277 6.75977 10.0341V7.04992H11.6355V8.88098L11.8702 8.60804L12.0817 8.88098L12.2914 8.60804L12.5374 8.88098L12.7133 8.60804L12.9471 8.88098L12.9472 7.04992L17.7838 7.0498Z" fill="#4B5563"/>
<path d="M12.9491 6.88184V5.16797H11.6372V6.88184H6.83105L8.05488 5H16.6311L17.7225 6.88184H12.9491Z" fill="#4B5563"/>
<path d="M11.6367 6.88184H12.9486V7.04991H11.6367V6.88184Z" fill="#4B5563"/>
<path d="M11.3523 13.7085V13.7269C11.3523 13.732 11.3523 13.7368 11.3515 13.7416C11.3507 13.7464 11.3506 13.7558 11.3496 13.7628C11.3487 13.7696 11.3482 13.7748 11.3472 13.7805C11.3459 13.7901 11.3441 13.7993 11.3421 13.8085C11.3412 13.8137 11.3399 13.8189 11.3386 13.8244C11.3373 13.83 11.3365 13.8324 11.3356 13.8366C11.3346 13.8407 11.333 13.8457 11.3317 13.85C11.3294 13.8575 11.327 13.8651 11.3243 13.8725C11.323 13.8765 11.3215 13.8805 11.3199 13.8847C11.3161 13.8943 11.3121 13.9039 11.3077 13.9135C11.3054 13.9183 11.3034 13.9228 11.301 13.9275C11.2681 13.9931 11.2208 14.0505 11.1627 14.0953H7.51843L7.5116 14.0961L7.50811 14.0969H7.50731C7.50544 14.0973 7.50356 14.0977 7.50169 14.0984L7.49807 14.0995L7.49552 14.1003H7.49405C7.49191 14.1011 7.49003 14.1019 7.48816 14.103C7.48735 14.1031 7.48655 14.1034 7.48588 14.1039L7.48267 14.1054L7.47945 14.1072C7.47798 14.1079 7.47651 14.1089 7.47517 14.1099C7.47249 14.1115 7.46994 14.1134 7.46767 14.1154C7.46619 14.1164 7.46499 14.1174 7.46378 14.1186H7.46298C7.46164 14.1196 7.46044 14.1208 7.45936 14.1221C7.45869 14.1226 7.45802 14.1232 7.45762 14.1239C7.45602 14.1253 7.45441 14.1268 7.45307 14.1285C7.45119 14.1305 7.44945 14.1327 7.44798 14.1351C7.44691 14.1364 7.44584 14.1379 7.4449 14.1395C7.44383 14.1413 7.44276 14.1431 7.44169 14.145C7.44115 14.1457 7.44088 14.1465 7.44061 14.1473C7.43968 14.149 7.43874 14.1506 7.43807 14.1525C7.43713 14.1541 7.43646 14.1559 7.43579 14.1576L7.43485 14.1603C7.43405 14.1623 7.43338 14.1644 7.43285 14.1666C7.43244 14.1676 7.43218 14.1687 7.43204 14.1699C7.43137 14.1718 7.43097 14.1738 7.4307 14.1758C7.43057 14.1765 7.43057 14.1772 7.4307 14.1778C7.43017 14.1804 7.4299 14.1829 7.42977 14.1856C7.42963 14.1887 7.42963 14.1919 7.42977 14.195C7.42977 14.2015 7.43044 14.208 7.43164 14.2144L7.43258 14.2188C7.43298 14.2203 7.43325 14.2218 7.43378 14.2232C7.43445 14.2256 7.43526 14.228 7.43619 14.2303C7.43686 14.2325 7.4378 14.2346 7.43887 14.2368C7.43981 14.2389 7.44088 14.2412 7.44209 14.2433V14.2441C7.44329 14.2465 7.44477 14.2488 7.44624 14.2511L7.44718 14.2526L7.452 14.2591L7.45294 14.2602C7.45508 14.2626 7.45695 14.2646 7.45923 14.2669C7.46378 14.2716 7.46887 14.2757 7.47436 14.2793C7.47651 14.2807 7.47838 14.282 7.48066 14.2832H7.48052C7.482 14.2842 7.48347 14.2851 7.48508 14.2858C7.48789 14.2874 7.4907 14.2886 7.49365 14.2897L7.49727 14.291L7.50115 14.2923H7.50302L7.50316 14.2922C7.5049 14.2927 7.50677 14.2933 7.50851 14.2937H7.51052C7.51253 14.2941 7.51468 14.2945 7.51669 14.2946H7.52285C7.52566 14.2947 7.5286 14.2947 7.53155 14.2946H10.4528C10.5725 14.387 10.6427 14.5298 10.6427 14.6811C10.6427 14.8325 10.5725 14.9752 10.4528 15.0676H7.52994C7.47356 15.0676 7.42775 15.1134 7.42775 15.1699C7.42775 15.2263 7.47355 15.2721 7.52994 15.2721H9.42584C9.54557 15.3645 9.61575 15.5074 9.61562 15.6586V15.6839C9.61562 15.6924 9.61482 15.698 9.61415 15.7051V15.7078V15.7129C9.61415 15.7189 9.61281 15.7251 9.61174 15.7308C9.61174 15.7332 9.61174 15.7355 9.61066 15.7379C9.61066 15.743 9.60919 15.7478 9.60799 15.7529V15.7528C9.60758 15.7557 9.60691 15.7587 9.60625 15.7615V15.7634C9.60531 15.7685 9.60397 15.7734 9.60263 15.7785L9.60249 15.7786C9.60236 15.7798 9.60209 15.781 9.60156 15.7822C9.60156 15.7832 9.60156 15.7845 9.60075 15.7855C9.59968 15.7904 9.59821 15.7954 9.5966 15.8002C9.59647 15.8011 9.5962 15.8021 9.5958 15.803C9.59593 15.8034 9.59593 15.8039 9.5958 15.8043C9.59366 15.811 9.59151 15.8177 9.58897 15.8243V15.8264C9.58642 15.8333 9.58375 15.8402 9.58093 15.8469C9.58093 15.8477 9.58093 15.8484 9.58013 15.8492C9.57705 15.8563 9.57383 15.8633 9.57049 15.8701V15.87C9.56339 15.8851 9.55549 15.8997 9.54665 15.9139C9.54303 15.9199 9.53915 15.926 9.53526 15.9314C9.53138 15.9371 9.52696 15.9435 9.52254 15.9491C9.52147 15.9507 9.5204 15.9523 9.51906 15.9538L9.51812 15.9551C9.51571 15.9585 9.51303 15.9618 9.51049 15.9651C9.50794 15.9683 9.50486 15.9719 9.50191 15.9752L9.49683 15.9811L9.49575 15.9825C9.49308 15.9853 9.49053 15.9884 9.48799 15.991H9.48772C9.48571 15.9933 9.4837 15.9956 9.48142 15.9976L9.47218 16.007L9.46709 16.0118L9.46468 16.0141C9.46147 16.0173 9.45799 16.0204 9.4545 16.0233C9.45102 16.0264 9.44352 16.0331 9.43749 16.0376L9.42156 16.0501C9.41741 16.0533 9.41272 16.0565 9.40843 16.0593V16.0595C9.40549 16.0616 9.40254 16.0636 9.39946 16.0655C9.39772 16.0668 9.39598 16.068 9.3941 16.0691C9.38834 16.073 9.38245 16.0765 9.37669 16.0798C9.37093 16.0832 9.36866 16.0845 9.3645 16.0867L9.36022 16.0891C9.3558 16.0916 9.35111 16.0938 9.34669 16.0962H9.34562L9.33584 16.1009C9.33196 16.1027 9.32821 16.1045 9.32406 16.1061L9.31723 16.1092L9.3029 16.1149L9.29352 16.1183C9.29031 16.1193 9.28709 16.1207 9.28388 16.1215L9.2729 16.1251L9.2587 16.129C9.25535 16.1299 9.25214 16.1311 9.24879 16.1317L9.2441 16.1327L9.23392 16.1351L9.22656 16.1366L9.20406 16.1405C9.1983 16.1414 9.19267 16.1422 9.18691 16.1429L9.17834 16.1439H9.17607C9.17124 16.1439 9.16642 16.1447 9.16173 16.1448L9.14874 16.1447H9.12665H2V13.5553C3.09941 13.5553 3.60931 12.9682 3.80871 12.7954C3.83108 12.7741 3.85318 12.7537 3.87487 12.7343C3.89188 12.7184 3.90876 12.7032 3.9255 12.6881C3.93796 12.6769 3.95041 12.6659 3.9626 12.655C3.97479 12.6442 3.98537 12.6349 3.99648 12.6252C4.02287 12.602 4.04898 12.5795 4.07456 12.5578L4.09653 12.5395L4.10791 12.5298C4.11595 12.5228 4.12411 12.5161 4.13202 12.5097C4.21465 12.4411 4.29434 12.3791 4.37188 12.3218C4.38461 12.3122 4.39746 12.3028 4.41019 12.2936C4.42612 12.2815 4.4422 12.2701 4.45813 12.2586C4.47153 12.249 4.48478 12.2396 4.49804 12.2306C4.56246 12.1856 4.62528 12.1438 4.68635 12.1053L4.7063 12.0927C4.73443 12.075 4.76229 12.0578 4.78961 12.0415L4.82403 12.0209C4.84331 12.0095 4.8626 11.9981 4.88148 11.9873L4.91925 11.9656C4.96948 11.9368 5.01863 11.9097 5.06698 11.8837L5.10407 11.8646C5.13997 11.8454 5.17546 11.8267 5.21055 11.8085L5.28006 11.7722L5.29733 11.7632L5.34019 11.7408L5.38291 11.7185L5.45028 11.6828C5.50064 11.6562 5.55032 11.6291 5.59974 11.6012C5.6122 11.5943 5.62439 11.5872 5.63671 11.58C5.64903 11.5728 5.66135 11.5659 5.67367 11.5586C5.68599 11.5512 5.69818 11.5442 5.7105 11.5366L5.74733 11.5141C5.76863 11.5007 5.79032 11.4869 5.81255 11.4728C5.8234 11.4658 5.83425 11.4588 5.84456 11.4514L5.86653 11.4368C5.90282 11.4123 5.93898 11.3865 5.97541 11.3594C5.99671 11.3431 6.01854 11.3263 6.0409 11.3091C6.0697 11.2863 6.09863 11.2626 6.12755 11.2378C6.1372 11.2298 6.14684 11.2219 6.15662 11.2128C6.16639 11.2037 6.17617 11.1957 6.18581 11.1869C6.21501 11.1607 6.24447 11.1332 6.27421 11.1045C6.28425 11.0948 6.29416 11.0849 6.3038 11.0748C6.30863 11.07 6.31358 11.0649 6.318 11.0598C6.32242 11.0547 6.33139 11.0455 6.33769 11.0381C6.34398 11.0308 6.35162 11.0222 6.35831 11.0144L6.37077 10.9997C6.3922 10.9733 6.41256 10.9466 6.43104 10.9197C6.43626 10.9124 6.44108 10.905 6.44604 10.8975C6.45099 10.89 6.45595 10.8828 6.46037 10.8753C6.46479 10.8678 6.46706 10.8651 6.47014 10.8593C6.47671 10.8491 6.48287 10.8388 6.48889 10.8285C6.49479 10.8181 6.50108 10.8079 6.50644 10.7977C6.51193 10.7875 6.51528 10.7818 6.51943 10.7739V10.7725C6.52251 10.7668 6.52546 10.7613 6.52827 10.7555C6.53737 10.7381 6.54568 10.7207 6.55398 10.7036C6.55787 10.6947 6.56175 10.6863 6.56577 10.6777C6.57501 10.6572 6.58345 10.6371 6.59188 10.6172C6.5951 10.6097 6.59818 10.6022 6.60099 10.5948C6.6038 10.5875 6.60822 10.5765 6.61171 10.5675C6.61854 10.5498 6.6251 10.5323 6.63126 10.5155L6.64104 10.4889C6.64318 10.4837 6.64492 10.4784 6.6468 10.4729L6.64639 10.4728C6.6468 10.4713 6.64733 10.4699 6.64787 10.4685C6.65014 10.462 6.65229 10.4554 6.6547 10.4488L6.66568 10.4182C6.66889 10.4091 6.67211 10.4002 6.67546 10.3915C6.68456 10.3666 6.6934 10.3436 6.70251 10.3223C6.70586 10.3142 6.70934 10.3063 6.71296 10.299V10.2988C6.71925 10.2849 6.72635 10.2712 6.73438 10.2581C6.738 10.2521 6.74188 10.2463 6.74577 10.241C6.74764 10.2383 6.74965 10.2358 6.75166 10.2333L6.75648 10.2276H6.75635C6.75715 10.2265 6.75796 10.2257 6.75876 10.2249L6.76331 10.2204C6.7672 10.2163 6.77162 10.2126 6.77617 10.2094C6.77845 10.2078 6.78072 10.2063 6.78313 10.2048C6.78541 10.2033 6.78769 10.202 6.7901 10.2008L6.79733 10.1976V10.1977C6.79974 10.1966 6.80229 10.1958 6.80483 10.195C6.81005 10.1936 6.81541 10.1926 6.82077 10.1921C6.82438 10.1918 6.82813 10.1918 6.83175 10.1921H6.8343C6.83778 10.1921 6.84113 10.1921 6.84488 10.193H6.84474C6.84849 10.1934 6.85211 10.1941 6.85572 10.1953C6.85961 10.196 6.86349 10.1971 6.86724 10.1985C6.87099 10.1995 6.87474 10.2008 6.87836 10.2024H6.87943C6.88358 10.204 6.88773 10.2059 6.89162 10.2079L6.90139 10.2126C6.90474 10.2143 6.90822 10.2161 6.91157 10.2182C6.91492 10.2204 6.92095 10.2237 6.92564 10.2266C6.94465 10.2386 6.96273 10.2517 6.98014 10.2658L6.98871 10.2726C7.0001 10.282 7.01215 10.2923 7.02474 10.3033C7.03104 10.3089 7.03733 10.3145 7.04376 10.3205L7.06371 10.3394C7.41058 10.6712 7.30064 11.6559 7.02193 12.2419H10.1539H10.1792C10.1876 12.2419 10.1932 12.2427 10.2001 12.2433L10.2097 12.2444C10.2157 12.2444 10.2219 12.2457 10.2277 12.2468C10.2334 12.2479 10.2398 12.2487 10.2456 12.25H10.2484L10.2542 12.2511C10.2575 12.2511 10.2609 12.2524 10.2642 12.2535C10.267 12.254 10.2698 12.2547 10.2725 12.2555C10.2794 12.2573 10.2863 12.259 10.2932 12.2613C10.3 12.2636 10.3053 12.2649 10.3112 12.2672L10.3165 12.269C10.3232 12.2715 10.3298 12.2739 10.3364 12.2765L10.3523 12.2832H10.3525C10.368 12.2902 10.3833 12.298 10.398 12.3064C10.4028 12.3092 10.4078 12.3122 10.4123 12.3153C10.422 12.3211 10.4314 12.3276 10.4406 12.3343C10.445 12.3376 10.4497 12.341 10.454 12.3445C10.463 12.3513 10.4714 12.3585 10.4798 12.3661L10.4873 12.373L10.4954 12.3806L10.5019 12.3872C10.5077 12.3931 10.5133 12.3992 10.519 12.4053L10.5214 12.4079C10.5263 12.4137 10.5311 12.4196 10.536 12.4255L10.5374 12.4276C10.5427 12.434 10.5475 12.4407 10.5523 12.4474C10.5571 12.4541 10.5622 12.4618 10.5669 12.4694C10.5693 12.4728 10.5713 12.4765 10.5736 12.4801C10.5761 12.4843 10.5787 12.4887 10.5811 12.4932L10.5846 12.4999C10.5874 12.5054 10.5903 12.5107 10.5927 12.5159L10.5949 12.52C10.5972 12.5247 10.5992 12.5294 10.6013 12.5342C10.6035 12.539 10.6056 12.5443 10.6076 12.5494C10.6095 12.5545 10.6104 12.5562 10.6116 12.5595C10.6142 12.5661 10.6163 12.5727 10.6185 12.5794C10.6194 12.5824 10.6203 12.5853 10.6211 12.5883C10.623 12.5942 10.6246 12.6001 10.6262 12.606C10.6278 12.6119 10.6284 12.6138 10.629 12.6181C10.6298 12.6222 10.6301 12.6233 10.6308 12.6257C10.6315 12.6281 10.6319 12.6313 10.6325 12.6339C10.6332 12.6364 10.6336 12.6395 10.634 12.642C10.6343 12.6446 10.6357 12.6517 10.6364 12.6564C10.6371 12.6612 10.6375 12.6639 10.6379 12.6678C10.6382 12.6716 10.639 12.6763 10.6394 12.6807L10.6403 12.6939L10.6402 12.6941C10.6403 12.6948 10.6403 12.6955 10.6402 12.696V12.6969V12.707V12.7103V12.7304C10.6402 12.7402 10.6402 12.7501 10.6394 12.7596C10.6386 12.7693 10.6379 12.7789 10.6368 12.7886C10.6368 12.794 10.6353 12.7994 10.6344 12.8045V12.8058C10.6335 12.8121 10.6321 12.8183 10.6311 12.8246C10.63 12.8309 10.6284 12.8377 10.6269 12.8443C10.6254 12.8508 10.6229 12.8602 10.6205 12.8684C10.6181 12.8765 10.6142 12.8881 10.6107 12.8978C10.6072 12.9076 10.6041 12.9151 10.6005 12.9237C10.5969 12.9323 10.593 12.9404 10.5887 12.9487C10.5558 13.0144 10.5085 13.0718 10.4504 13.1167H7.52978H7.51974C7.51719 13.1168 7.51478 13.1171 7.51224 13.1176H7.51116L7.50768 13.1184L7.50353 13.1195H7.5034C7.50166 13.1199 7.49991 13.1203 7.49817 13.121C7.49295 13.1227 7.48786 13.1249 7.48304 13.1274C7.4817 13.1281 7.48036 13.1287 7.47916 13.1297H7.47822L7.47259 13.1332C7.47018 13.1346 7.46804 13.1364 7.4659 13.1382C7.46108 13.1421 7.45666 13.1464 7.45264 13.151C7.45143 13.1523 7.45023 13.1538 7.44929 13.1553L7.44782 13.1574L7.4446 13.1618C7.44326 13.1641 7.44192 13.1661 7.44072 13.1684V13.1682C7.43804 13.1735 7.43576 13.1788 7.43389 13.1843C7.43335 13.1857 7.43295 13.1869 7.43268 13.1883L7.43175 13.1922L7.43161 13.1921C7.43094 13.1941 7.43054 13.1961 7.43041 13.1982C7.43041 13.2004 7.43041 13.2023 7.4296 13.2045V13.2086V13.2084C7.42947 13.2112 7.42947 13.214 7.4296 13.2169C7.4296 13.2734 7.4754 13.3192 7.53192 13.3192H11.1631C11.2834 13.4124 11.3533 13.5564 11.3522 13.7085L11.3523 13.7085Z" fill="#4B5563"/>
</svg>
