<svg width="22" height="22" viewBox="0 0 22 22" fill="none" xmlns="http://www.w3.org/2000/svg">
<path d="M11.3302 5.58594L20.1662 9.07921L11.3302 12.5725L2.49414 9.07921L11.3302 5.58594ZM19.5497 9.75993V12.046C19.4234 11.99 19.2845 11.9562 19.1388 11.9562C18.993 11.9562 18.854 11.99 18.7278 12.046V10.0875L19.5497 9.75993ZM16.8783 10.8195V13.8055C16.8783 14.6656 14.4039 15.8604 11.3301 15.8604C8.25638 15.8604 5.78193 14.6656 5.78193 13.8055V10.8195L11.176 12.9515C11.2748 12.9915 11.3854 12.9915 11.4842 12.9515L16.8783 10.8195ZM19.1388 12.3671C19.4792 12.3671 19.7553 12.643 19.7553 12.9836C19.7553 13.324 19.4794 13.6001 19.1388 13.6001C18.7984 13.6001 18.5223 13.324 18.5223 12.9836C18.5223 12.6432 18.7982 12.3671 19.1388 12.3671Z" fill="#4B5563"/>
</svg>
