<svg width="22" height="22" viewBox="0 0 22 22" fill="none" xmlns="http://www.w3.org/2000/svg">
<path fill-rule="evenodd" clip-rule="evenodd" d="M13.6661 3.58545L17.9991 7.08891L17.6324 8.91686L16.3968 8.41476C15.2205 7.41482 14.039 6.42069 12.8595 5.42455C12.7406 5.31033 12.6245 5.19144 12.5098 5.07482L13.6661 3.58545Z" fill="#0062CC"/>
<path fill-rule="evenodd" clip-rule="evenodd" d="M12.7079 5.7688C13.8703 6.74807 15.0292 7.73138 16.1888 8.71381C15.8789 10.6547 15.3739 11.804 14.5131 12.7025C13.6376 13.6164 12.3703 14.2817 10.5299 15.2018C10.5262 15.2035 10.5224 15.2054 10.5187 15.2073C9.87091 15.5806 9.31806 15.3584 9.08004 14.9873C8.96103 14.8017 8.92212 14.5783 8.99541 14.3442C9.0687 14.1101 9.25849 13.8583 9.63856 13.6389H9.6441C10.7057 13.0008 11.1386 12.887 11.7146 12.4316C12.1129 12.1189 12.3234 11.7971 12.7188 11.0607C12.7664 10.9689 12.715 10.8404 12.6173 10.8068C11.8549 10.5399 11.4124 10.1459 11.1279 9.8308C10.9857 9.67326 10.8872 9.53838 10.8007 9.43587C10.7574 9.38461 10.7163 9.34003 10.654 9.30049C10.6229 9.28072 10.5847 9.26372 10.5298 9.26094C10.475 9.25817 10.4109 9.27568 10.3719 9.30603C9.67043 9.85713 9.30609 10.0798 8.43679 10.3555C8.34359 10.3856 8.28856 10.501 8.32395 10.5925L8.70202 11.5798H6.5863L6.25346 10.1863C6.23382 10.0338 6.29779 9.80321 6.44526 9.54317C6.59475 9.27984 6.8242 8.99042 7.08841 8.71374C7.61697 8.16038 8.30068 7.654 8.76963 7.4613L12.7079 5.7688Z" fill="#0062CC"/>
<path fill-rule="evenodd" clip-rule="evenodd" d="M10.513 9.65601C10.5164 9.65991 10.5208 9.66306 10.5244 9.66734C10.5953 9.75134 10.7018 9.90145 10.8572 10.0735C11.1424 10.3895 11.5914 10.7854 12.3016 11.0722C12.1848 11.2855 12.0873 11.4424 11.9969 11.5799H9.08566L8.72461 10.6434C9.46825 10.3919 9.89619 10.1345 10.513 9.65602L10.513 9.65601Z" fill="#0062CC"/>
<path fill-rule="evenodd" clip-rule="evenodd" d="M4.22766 11.9409H11.7256C11.6547 12.0142 11.5767 12.0806 11.4886 12.1497C10.9604 12.5674 10.5382 12.6797 9.4575 13.3288C9.01962 13.5822 8.75555 13.9024 8.65077 14.2372C8.54574 14.5728 8.60254 14.9164 8.77482 15.185C9.11836 15.7206 9.91165 15.9693 10.6931 15.5235C11.6546 15.0428 12.4657 14.6277 13.1585 14.2033V18.1527H4.22754L4.22766 11.9409Z" fill="#0062CC"/>
</svg>
