<svg width="22" height="23" viewBox="0 0 22 23" fill="none" xmlns="http://www.w3.org/2000/svg">
<path d="M9.65367 7.09875C9.65367 8.09665 8.84469 8.90551 7.84691 8.90551C6.84901 8.90551 6.04004 8.09665 6.04004 7.09875C6.04004 6.10085 6.84901 5.29199 7.84691 5.29199C8.84469 5.29199 9.65367 6.10085 9.65367 7.09875Z" fill="#9CA3AF"/>
<path d="M18.8078 9.04195C19.0634 8.78632 19.0634 8.42832 18.8078 8.17268C18.5522 7.91705 18.1942 7.91705 17.9385 8.17268L16.3363 9.77495H13.3704L11.7681 8.17268C11.5125 7.91705 11.1545 7.91705 10.8988 8.17268L9.27955 9.77495H6.31366L4.71139 8.17268C4.45576 7.91705 4.09776 7.91705 3.84211 8.17268C3.58648 8.42831 3.58648 8.7863 3.84211 9.04195L6.14327 11.3431V16.3373C6.14327 16.6612 6.43302 16.951 6.7569 16.951C7.08077 16.951 7.37052 16.6612 7.37052 16.3373V14.4793C7.37052 14.2237 7.54102 14.0702 7.77964 14.0702C8.03527 14.0702 8.18875 14.2407 8.18875 14.4793V16.3373C8.18875 16.6612 8.4785 16.951 8.80238 16.951C9.12625 16.951 9.416 16.6612 9.416 16.3373V13.5759L9.41588 11.3089L11.3079 9.50217L13.1999 11.343L11.9556 15.1782H13.1999V16.3372C13.1999 16.6611 13.4897 16.9508 13.8135 16.9508C14.1374 16.9508 14.4272 16.6611 14.4272 16.3372V15.1782H15.2453V16.3372C15.2453 16.6611 15.5351 16.9508 15.8589 16.9508C16.1828 16.9508 16.4726 16.6611 16.4726 16.3372V15.1782H17.7168L16.4726 11.343L18.8078 9.04195Z" fill="#9CA3AF"/>
<path d="M16.6624 7.09875C16.6624 8.09665 15.8535 8.90551 14.8557 8.90551C13.8578 8.90551 13.0488 8.09665 13.0488 7.09875C13.0488 6.10085 13.8578 5.29199 14.8557 5.29199C15.8535 5.29199 16.6624 6.10085 16.6624 7.09875Z" fill="#9CA3AF"/>
</svg>
