<svg width="22" height="22" viewBox="0 0 22 22" fill="none" xmlns="http://www.w3.org/2000/svg">
<path fill-rule="evenodd" clip-rule="evenodd" d="M4.16491 7.80333C4.53263 7.43603 4.97458 7.25177 5.49048 7.25177C5.75505 7.25177 6.01315 7.31292 6.26448 7.43576C6.19361 7.5968 6.14205 7.73246 6.10992 7.84221C6.01313 8.16456 5.96481 8.46762 5.96481 8.75147C5.96481 9.2805 6.10007 9.78023 6.37126 10.2512C6.42931 10.3673 6.4937 10.4738 6.56484 10.5704L4.61981 11.3544C4.3555 11.4639 4.14586 11.6285 3.99091 11.8477C3.82986 12.0736 3.74901 12.3187 3.74901 12.5832V14.4216H2.24931C2.13322 14.4216 2.03333 14.3796 1.9495 14.2958C1.87175 14.2121 1.83301 14.1122 1.83301 13.9959V12.2447C1.83301 12.1607 1.85542 12.0832 1.90091 12.0122C1.95234 11.9416 2.017 11.8898 2.09448 11.8576L4.6294 10.8319C4.31974 10.6641 4.07459 10.4354 3.89385 10.145C3.70689 9.84159 3.61348 9.50964 3.61348 9.14842C3.61335 8.62575 3.79707 8.1773 4.16491 7.80326L4.16491 7.80333ZM19.1432 13.3383C19.2142 13.3897 19.2496 13.4572 19.2496 13.5412V14.6056C19.2496 14.6829 19.2142 14.7507 19.1432 14.809C19.0786 14.8604 19.0045 14.8864 18.9206 14.8864H14.7019L14.7117 13.251H18.9207C19.011 13.251 19.085 13.28 19.1433 13.3383L19.1432 13.3383ZM12.3701 7.91979C12.241 7.45531 12.0187 7.04546 11.7024 6.6906H18.9207C19.0046 6.6906 19.0786 6.71962 19.1433 6.77794C19.2143 6.83585 19.2496 6.90374 19.2496 6.98096V8.04534C19.2496 8.12269 19.2143 8.19045 19.1433 8.24877C19.0786 8.3006 19.0045 8.32612 18.9207 8.32612H12.4572C12.4248 8.15185 12.3958 8.01659 12.3701 7.9198L12.3701 7.91979ZM12.1282 10.1741C12.1733 10.1035 12.2055 10.0353 12.225 9.97105H18.9207C19.011 9.97105 19.0853 10.0001 19.1433 10.058C19.2143 10.1163 19.2497 10.1838 19.2497 10.2614L19.2495 11.3158C19.2495 11.3998 19.2142 11.4708 19.1432 11.5287C19.0849 11.587 19.0107 11.616 18.9206 11.616H14.2471C14.1376 11.5129 14.0052 11.4255 13.8506 11.3548L11.8958 10.5516C11.973 10.4612 12.0506 10.3354 12.1281 10.1741L12.1282 10.1741ZM10.6284 6.88429C11.0348 7.2007 11.309 7.60687 11.4508 8.10363C11.5152 8.34202 11.5476 8.5584 11.5476 8.75199C11.5476 9.12631 11.4573 9.48753 11.2767 9.83565C11.051 10.268 10.7349 10.5904 10.3284 10.8032L13.4441 12.0998C13.6571 12.1901 13.7632 12.3512 13.7632 12.5836V14.7414C13.7632 14.8896 13.7118 15.0154 13.6086 15.1185C13.5055 15.2153 13.3828 15.2636 13.2409 15.2636H5.2099C5.06803 15.2636 4.94533 15.2153 4.84218 15.1185C4.74539 15.0154 4.69707 14.8895 4.69707 14.7414V12.5836C4.69707 12.4805 4.72609 12.3837 4.78413 12.2934C4.84218 12.2094 4.91966 12.1448 5.01631 12.0998L8.16099 10.8226C7.76117 10.6159 7.445 10.3062 7.21271 9.89343C7.0128 9.54489 6.91277 9.16138 6.91277 8.74228C6.91277 8.50348 6.95151 8.27441 7.02913 8.05504C7.17735 7.57125 7.44827 7.1744 7.84177 6.86487C8.25469 6.55521 8.71609 6.40039 9.22539 6.40039C9.74765 6.40053 10.2155 6.56184 10.6283 6.88433L10.6284 6.88429Z" fill="#ffffff"/>
</svg>
