<svg width="22" height="22" viewBox="0 0 22 22" fill="none" xmlns="http://www.w3.org/2000/svg">
<path d="M9.6875 16.6873V13.6204C9.6875 13.4061 9.90625 13.1873 10.125 13.1873H11.875C12.0938 13.1873 12.3125 13.4061 12.3125 13.6248V16.6873C12.3125 16.8033 12.3586 16.9146 12.4406 16.9967C12.5227 17.0787 12.634 17.1248 12.75 17.1248H16.25C16.366 17.1248 16.4773 17.0787 16.5594 16.9967C16.6414 16.9146 16.6875 16.8033 16.6875 16.6873V10.5623C16.6876 10.5048 16.6764 10.4479 16.6545 10.3947C16.6325 10.3416 16.6004 10.2933 16.5598 10.2526L15.375 9.06868V6.18731C15.375 6.07127 15.3289 5.95999 15.2469 5.87795C15.1648 5.7959 15.0535 5.74981 14.9375 5.74981H14.0625C13.9465 5.74981 13.8352 5.7959 13.7531 5.87795C13.6711 5.95999 13.625 6.07127 13.625 6.18731V7.31868L11.3098 5.00256C11.2691 4.96181 11.2208 4.92949 11.1677 4.90743C11.1145 4.88538 11.0575 4.87402 11 4.87402C10.9425 4.87402 10.8855 4.88538 10.8323 4.90743C10.7792 4.92949 10.7309 4.96181 10.6903 5.00256L5.44025 10.2526C5.39965 10.2933 5.36747 10.3416 5.34555 10.3947C5.32363 10.4479 5.3124 10.5048 5.3125 10.5623V16.6873C5.3125 16.8033 5.35859 16.9146 5.44064 16.9967C5.52269 17.0787 5.63397 17.1248 5.75 17.1248H9.25C9.36603 17.1248 9.47731 17.0787 9.55936 16.9967C9.64141 16.9146 9.6875 16.8033 9.6875 16.6873Z" fill="#ffffff"/>
</svg>
