<svg width="14" height="14" viewBox="0 0 14 14" fill="none" xmlns="http://www.w3.org/2000/svg">
<path d="M5.6875 12.6873V9.62043C5.6875 9.40606 5.90625 9.18731 6.125 9.18731H7.875C8.09375 9.18731 8.3125 9.40606 8.3125 9.62481V12.6873C8.3125 12.8033 8.35859 12.9146 8.44064 12.9967C8.52269 13.0787 8.63397 13.1248 8.75 13.1248H12.25C12.366 13.1248 12.4773 13.0787 12.5594 12.9967C12.6414 12.9146 12.6875 12.8033 12.6875 12.6873V6.56231C12.6876 6.50481 12.6764 6.44787 12.6545 6.39472C12.6325 6.34157 12.6004 6.29326 12.5598 6.25256L11.375 5.06868V2.18731C11.375 2.07127 11.3289 1.95999 11.2469 1.87795C11.1648 1.7959 11.0535 1.74981 10.9375 1.74981H10.0625C9.94647 1.74981 9.83519 1.7959 9.75314 1.87795C9.67109 1.95999 9.625 2.07127 9.625 2.18731V3.31868L7.30975 1.00256C7.26911 0.961813 7.22083 0.929488 7.16768 0.907432C7.11453 0.885376 7.05755 0.874023 7 0.874023C6.94245 0.874023 6.88547 0.885376 6.83232 0.907432C6.77917 0.929488 6.73089 0.961813 6.69025 1.00256L1.44025 6.25256C1.39965 6.29326 1.36747 6.34157 1.34555 6.39472C1.32363 6.44787 1.3124 6.50481 1.3125 6.56231V12.6873C1.3125 12.8033 1.35859 12.9146 1.44064 12.9967C1.52269 13.0787 1.63397 13.1248 1.75 13.1248H5.25C5.36603 13.1248 5.47731 13.0787 5.55936 12.9967C5.64141 12.9146 5.6875 12.8033 5.6875 12.6873Z" fill="#9CA3AF"/>
</svg>
