<svg width="22" height="22" viewBox="0 0 22 22" fill="none" xmlns="http://www.w3.org/2000/svg">
<path d="M5.31543 6V14.6695H19.2348L19.2349 6H5.31543ZM8.47842 13.5099H6.74882V12.9573H8.47842V13.5099ZM8.47842 7.73504H6.74882V7.18243H8.47842V7.73504ZM12.2692 12.0813C11.3033 12.0813 10.5201 11.2983 10.5201 10.3323C10.5201 9.3663 11.3032 8.58326 12.2692 8.58326C13.2352 8.58326 14.0182 9.3663 14.0182 10.3323C14.0183 11.2983 13.2352 12.0813 12.2692 12.0813V12.0813ZM17.7782 13.5099H16.0486V12.9573H17.7782V13.5099ZM17.7782 7.73512H16.0486V7.18251H17.7782V7.73512Z" fill="#4B5563"/>
<path d="M4.72546 15.2922V7.13965H4.17285V15.8448H18.0599V15.2922H4.72546Z" fill="#4B5563"/>
<path d="M3.55261 16.4475V8.29492H3V17.0001H16.887V16.4475H3.55261Z" fill="#4B5563"/>
</svg>
