<svg width="24" height="24" viewBox="0 0 24 24" fill="none" xmlns="http://www.w3.org/2000/svg">
<path d="M14.4375 13.6406L3.1875 13.6406C3.08437 13.6406 3 13.725 3 13.8281V15.1406C3 15.2438 3.08437 15.3281 3.1875 15.3281L14.4375 15.3281C14.5406 15.3281 14.625 15.2438 14.625 15.1406V13.8281C14.625 13.725 14.5406 13.6406 14.4375 13.6406ZM14.625 8.85938C14.625 8.75625 14.5406 8.67188 14.4375 8.67188H3.1875C3.08437 8.67188 3 8.75625 3 8.85938V10.1719C3 10.275 3.08437 10.3594 3.1875 10.3594H14.4375C14.5406 10.3594 14.625 10.275 14.625 10.1719V8.85938ZM2.8125 20.25L21.1875 20.25C21.2906 20.25 21.375 20.1656 21.375 20.0625V18.75C21.375 18.6469 21.2906 18.5625 21.1875 18.5625L2.8125 18.5625C2.70937 18.5625 2.625 18.6469 2.625 18.75V20.0625C2.625 20.1656 2.70937 20.25 2.8125 20.25ZM2.8125 5.4375L21.1875 5.4375C21.2906 5.4375 21.375 5.35313 21.375 5.25V3.9375C21.375 3.83437 21.2906 3.75 21.1875 3.75L2.8125 3.75C2.70937 3.75 2.625 3.83437 2.625 3.9375V5.25C2.625 5.35313 2.70937 5.4375 2.8125 5.4375ZM21.2953 11.8383L17.632 8.95312C17.4961 8.84531 17.2945 8.94141 17.2945 9.11484V14.8852C17.2945 15.0586 17.4937 15.1547 17.632 15.0469L21.2953 12.1617C21.3199 12.1426 21.3399 12.118 21.3536 12.09C21.3673 12.062 21.3744 12.0312 21.3744 12C21.3744 11.9688 21.3673 11.938 21.3536 11.91C21.3399 11.882 21.3199 11.8574 21.2953 11.8383V11.8383Z" fill="#002B59"/>
</svg>
